<?xml version="1.0" encoding="UTF-8" standalone="no"?>
<!DOCTYPE svg PUBLIC "-//W3C//DTD SVG 1.1//EN"
 "http://www.w3.org/Graphics/SVG/1.1/DTD/svg11.dtd">
<!-- Generated by graphviz version 2.38.0 (20140413.2041)
 -->
<!-- Title: G Pages: 1 -->
<svg width="825pt" height="2500pt"
 viewBox="0.00 0.00 824.87 2500.00" xmlns="http://www.w3.org/2000/svg" xmlns:xlink="http://www.w3.org/1999/xlink">
<g id="graph0" class="graph" transform="scale(1 1) rotate(0) translate(4 2496)">
<title>G</title>
<polygon fill="white" stroke="none" points="-4,4 -4,-2496 820.873,-2496 820.873,4 -4,4"/>
<g id="clust1" class="cluster"><title>cluster_Global</title>
<path fill="none" stroke="gray" d="M20,-314C20,-314 796.873,-314 796.873,-314 802.873,-314 808.873,-320 808.873,-326 808.873,-326 808.873,-2472 808.873,-2472 808.873,-2478 802.873,-2484 796.873,-2484 796.873,-2484 20,-2484 20,-2484 14,-2484 8,-2478 8,-2472 8,-2472 8,-326 8,-326 8,-320 14,-314 20,-314"/>
<text text-anchor="middle" x="408.437" y="-2471.2" font-family="Times,serif" font-size="11.00" fill="gray">Global</text>
</g>
<g id="clust2" class="cluster"><title>cluster_\Clx</title>
<path fill="none" stroke="gray" d="M28,-322C28,-322 788.873,-322 788.873,-322 794.873,-322 800.873,-328 800.873,-334 800.873,-334 800.873,-2444 800.873,-2444 800.873,-2450 794.873,-2456 788.873,-2456 788.873,-2456 28,-2456 28,-2456 22,-2456 16,-2450 16,-2444 16,-2444 16,-334 16,-334 16,-328 22,-322 28,-322"/>
<text text-anchor="middle" x="408.437" y="-2443.2" font-family="Times,serif" font-size="11.00" fill="gray">Clx</text>
</g>
<g id="clust3" class="cluster"><title>cluster_\Clx\Xms</title>
<path fill="none" stroke="gray" d="M36,-330C36,-330 780.873,-330 780.873,-330 786.873,-330 792.873,-336 792.873,-342 792.873,-342 792.873,-2416 792.873,-2416 792.873,-2422 786.873,-2428 780.873,-2428 780.873,-2428 36,-2428 36,-2428 30,-2428 24,-2422 24,-2416 24,-2416 24,-342 24,-342 24,-336 30,-330 36,-330"/>
<text text-anchor="middle" x="408.437" y="-2415.2" font-family="Times,serif" font-size="11.00" fill="gray">Xms</text>
</g>
<g id="clust4" class="cluster"><title>cluster_\Clx\Xms\Api</title>
<path fill="none" stroke="gray" d="M44,-1086C44,-1086 772.873,-1086 772.873,-1086 778.873,-1086 784.873,-1092 784.873,-1098 784.873,-1098 784.873,-2388 784.873,-2388 784.873,-2394 778.873,-2400 772.873,-2400 772.873,-2400 44,-2400 44,-2400 38,-2400 32,-2394 32,-2388 32,-2388 32,-1098 32,-1098 32,-1092 38,-1086 44,-1086"/>
<text text-anchor="middle" x="408.437" y="-2387.2" font-family="Times,serif" font-size="11.00" fill="gray">Api</text>
</g>
<!-- \\Clx\\Xms\\Api\\BatchDeliveryReport -->
<g id="node1" class="node"><title>\\Clx\\Xms\\Api\\BatchDeliveryReport</title>
<polygon fill="none" stroke="black" points="746.373,-2372 601.373,-2372 601.373,-2336 746.373,-2336 746.373,-2372"/>
<text text-anchor="middle" x="673.873" y="-2351.2" font-family="Courier,monospace" font-size="11.00">BatchDeliveryReport</text>
</g>
<!-- \\Clx\\Xms\\Api\\BatchDeliveryReportStatus -->
<g id="node2" class="node"><title>\\Clx\\Xms\\Api\\BatchDeliveryReportStatus</title>
<polygon fill="none" stroke="black" points="766.373,-2318 581.373,-2318 581.373,-2282 766.373,-2282 766.373,-2318"/>
<text text-anchor="middle" x="673.873" y="-2297.2" font-family="Courier,monospace" font-size="11.00">BatchDeliveryReportStatus</text>
</g>
<!-- \\Clx\\Xms\\Api\\BatchRecipientDeliveryReport -->
<g id="node3" class="node"><title>\\Clx\\Xms\\Api\\BatchRecipientDeliveryReport</title>
<polygon fill="none" stroke="black" points="776.873,-2264 570.873,-2264 570.873,-2228 776.873,-2228 776.873,-2264"/>
<text text-anchor="middle" x="673.873" y="-2243.2" font-family="Courier,monospace" font-size="11.00">BatchRecipientDeliveryReport</text>
</g>
<!-- \\Clx\\Xms\\Api\\DeliveryStatus -->
<g id="node4" class="node"><title>\\Clx\\Xms\\Api\\DeliveryStatus</title>
<polygon fill="none" stroke="black" points="729.373,-2210 618.373,-2210 618.373,-2174 729.373,-2174 729.373,-2210"/>
<text text-anchor="middle" x="673.873" y="-2189.2" font-family="Courier,monospace" font-size="11.00">DeliveryStatus</text>
</g>
<!-- \\Clx\\Xms\\Api\\DryRunPerRecipient -->
<g id="node5" class="node"><title>\\Clx\\Xms\\Api\\DryRunPerRecipient</title>
<polygon fill="none" stroke="black" points="742.873,-2156 604.873,-2156 604.873,-2120 742.873,-2120 742.873,-2156"/>
<text text-anchor="middle" x="673.873" y="-2135.2" font-family="Courier,monospace" font-size="11.00">DryRunPerRecipient</text>
</g>
<!-- \\Clx\\Xms\\Api\\Error -->
<g id="node6" class="node"><title>\\Clx\\Xms\\Api\\Error</title>
<polygon fill="none" stroke="black" points="700.873,-2102 646.873,-2102 646.873,-2066 700.873,-2066 700.873,-2102"/>
<text text-anchor="middle" x="673.873" y="-2081.2" font-family="Courier,monospace" font-size="11.00">Error</text>
</g>
<!-- \\Clx\\Xms\\Api\\GroupAutoUpdate -->
<g id="node7" class="node"><title>\\Clx\\Xms\\Api\\GroupAutoUpdate</title>
<polygon fill="none" stroke="black" points="732.873,-2048 614.873,-2048 614.873,-2012 732.873,-2012 732.873,-2048"/>
<text text-anchor="middle" x="673.873" y="-2027.2" font-family="Courier,monospace" font-size="11.00">GroupAutoUpdate</text>
</g>
<!-- \\Clx\\Xms\\Api\\GroupCreate -->
<g id="node8" class="node"><title>\\Clx\\Xms\\Api\\GroupCreate</title>
<polygon fill="none" stroke="black" points="719.373,-1994 628.373,-1994 628.373,-1958 719.373,-1958 719.373,-1994"/>
<text text-anchor="middle" x="673.873" y="-1973.2" font-family="Courier,monospace" font-size="11.00">GroupCreate</text>
</g>
<!-- \\Clx\\Xms\\Api\\GroupResult -->
<g id="node9" class="node"><title>\\Clx\\Xms\\Api\\GroupResult</title>
<polygon fill="none" stroke="black" points="719.373,-1940 628.373,-1940 628.373,-1904 719.373,-1904 719.373,-1940"/>
<text text-anchor="middle" x="673.873" y="-1919.2" font-family="Courier,monospace" font-size="11.00">GroupResult</text>
</g>
<!-- \\Clx\\Xms\\Api\\GroupUpdate -->
<g id="node10" class="node"><title>\\Clx\\Xms\\Api\\GroupUpdate</title>
<polygon fill="none" stroke="black" points="719.373,-1886 628.373,-1886 628.373,-1850 719.373,-1850 719.373,-1886"/>
<text text-anchor="middle" x="673.873" y="-1865.2" font-family="Courier,monospace" font-size="11.00">GroupUpdate</text>
</g>
<!-- \\Clx\\Xms\\Api\\MoBinarySms -->
<g id="node11" class="node"><title>\\Clx\\Xms\\Api\\MoBinarySms</title>
<polygon fill="none" stroke="black" points="719.373,-1832 628.373,-1832 628.373,-1796 719.373,-1796 719.373,-1832"/>
<text text-anchor="middle" x="673.873" y="-1811.2" font-family="Courier,monospace" font-size="11.00">MoBinarySms</text>
</g>
<!-- \\Clx\\Xms\\Api\\MoSms -->
<g id="node12" class="node"><title>\\Clx\\Xms\\Api\\MoSms</title>
<polygon fill="none" stroke="black" points="389.437,-1805 305.437,-1805 305.437,-1769 389.437,-1769 389.437,-1805"/>
<text text-anchor="start" x="313.437" y="-1790.2" font-family="Courier,monospace" font-size="11.00">«abstract»</text>
<text text-anchor="start" x="330.437" y="-1778.2" font-family="Courier,monospace" font-size="11.00">MoSms</text>
</g>
<!-- \\Clx\\Xms\\Api\\MoBinarySms&#45;&gt;\\Clx\\Xms\\Api\\MoSms -->
<g id="edge1" class="edge"><title>\\Clx\\Xms\\Api\\MoBinarySms&#45;&gt;\\Clx\\Xms\\Api\\MoSms</title>
<path fill="none" stroke="black" d="M628.102,-1810.27C568.329,-1805.3 462.702,-1796.51 399.772,-1791.27"/>
<polygon fill="none" stroke="black" points="399.93,-1787.77 389.674,-1790.43 399.349,-1794.75 399.93,-1787.77"/>
</g>
<!-- \\Clx\\Xms\\Api\\MoTextSms -->
<g id="node13" class="node"><title>\\Clx\\Xms\\Api\\MoTextSms</title>
<polygon fill="none" stroke="black" points="712.373,-1778 635.373,-1778 635.373,-1742 712.373,-1742 712.373,-1778"/>
<text text-anchor="middle" x="673.873" y="-1757.2" font-family="Courier,monospace" font-size="11.00">MoTextSms</text>
</g>
<!-- \\Clx\\Xms\\Api\\MoTextSms&#45;&gt;\\Clx\\Xms\\Api\\MoSms -->
<g id="edge2" class="edge"><title>\\Clx\\Xms\\Api\\MoTextSms&#45;&gt;\\Clx\\Xms\\Api\\MoSms</title>
<path fill="none" stroke="black" d="M635.339,-1763.12C577.153,-1767.97 465.073,-1777.29 399.548,-1782.75"/>
<polygon fill="none" stroke="black" points="399.122,-1779.27 389.447,-1783.59 399.703,-1786.25 399.122,-1779.27"/>
</g>
<!-- \\Clx\\Xms\\Api\\MtBatchBinarySmsCreate -->
<g id="node14" class="node"><title>\\Clx\\Xms\\Api\\MtBatchBinarySmsCreate</title>
<polygon fill="none" stroke="black" points="756.373,-1724 591.373,-1724 591.373,-1688 756.373,-1688 756.373,-1724"/>
<text text-anchor="middle" x="673.873" y="-1703.2" font-family="Courier,monospace" font-size="11.00">MtBatchBinarySmsCreate</text>
</g>
<!-- \\Clx\\Xms\\Api\\MtBatchSmsCreate -->
<g id="node19" class="node"><title>\\Clx\\Xms\\Api\\MtBatchSmsCreate</title>
<polygon fill="none" stroke="black" points="409.937,-1670 284.937,-1670 284.937,-1634 409.937,-1634 409.937,-1670"/>
<text text-anchor="start" x="313.437" y="-1655.2" font-family="Courier,monospace" font-size="11.00">«abstract»</text>
<text text-anchor="start" x="292.937" y="-1643.2" font-family="Courier,monospace" font-size="11.00">MtBatchSmsCreate</text>
</g>
<!-- \\Clx\\Xms\\Api\\MtBatchBinarySmsCreate&#45;&gt;\\Clx\\Xms\\Api\\MtBatchSmsCreate -->
<g id="edge3" class="edge"><title>\\Clx\\Xms\\Api\\MtBatchBinarySmsCreate&#45;&gt;\\Clx\\Xms\\Api\\MtBatchSmsCreate</title>
<path fill="none" stroke="black" d="M591.004,-1692.37C538.296,-1683.6 470.448,-1672.31 419.917,-1663.9"/>
<polygon fill="none" stroke="black" points="420.49,-1660.44 410.051,-1662.26 419.341,-1667.35 420.49,-1660.44"/>
</g>
<!-- \\Clx\\Xms\\Api\\MtBatchBinarySmsResult -->
<g id="node15" class="node"><title>\\Clx\\Xms\\Api\\MtBatchBinarySmsResult</title>
<polygon fill="none" stroke="black" points="756.373,-1508 591.373,-1508 591.373,-1472 756.373,-1472 756.373,-1508"/>
<text text-anchor="middle" x="673.873" y="-1487.2" font-family="Courier,monospace" font-size="11.00">MtBatchBinarySmsResult</text>
</g>
<!-- \\Clx\\Xms\\Api\\MtBatchSmsResult -->
<g id="node20" class="node"><title>\\Clx\\Xms\\Api\\MtBatchSmsResult</title>
<polygon fill="none" stroke="black" points="409.937,-1616 284.937,-1616 284.937,-1580 409.937,-1580 409.937,-1616"/>
<text text-anchor="start" x="313.437" y="-1601.2" font-family="Courier,monospace" font-size="11.00">«abstract»</text>
<text text-anchor="start" x="292.937" y="-1589.2" font-family="Courier,monospace" font-size="11.00">MtBatchSmsResult</text>
</g>
<!-- \\Clx\\Xms\\Api\\MtBatchBinarySmsResult&#45;&gt;\\Clx\\Xms\\Api\\MtBatchSmsResult -->
<g id="edge4" class="edge"><title>\\Clx\\Xms\\Api\\MtBatchBinarySmsResult&#45;&gt;\\Clx\\Xms\\Api\\MtBatchSmsResult</title>
<path fill="none" stroke="black" d="M601.302,-1508.07C591.047,-1510.91 580.661,-1513.93 570.873,-1517 513.333,-1535.05 448.677,-1559.02 403.966,-1576.19"/>
<polygon fill="none" stroke="black" points="402.529,-1573 394.457,-1579.86 405.046,-1579.53 402.529,-1573"/>
</g>
<!-- \\Clx\\Xms\\Api\\MtBatchBinarySmsUpdate -->
<g id="node16" class="node"><title>\\Clx\\Xms\\Api\\MtBatchBinarySmsUpdate</title>
<polygon fill="none" stroke="black" points="756.373,-1454 591.373,-1454 591.373,-1418 756.373,-1418 756.373,-1454"/>
<text text-anchor="middle" x="673.873" y="-1433.2" font-family="Courier,monospace" font-size="11.00">MtBatchBinarySmsUpdate</text>
</g>
<!-- \\Clx\\Xms\\Api\\MtBatchSmsUpdate -->
<g id="node21" class="node"><title>\\Clx\\Xms\\Api\\MtBatchSmsUpdate</title>
<polygon fill="none" stroke="black" points="409.937,-1427 284.937,-1427 284.937,-1391 409.937,-1391 409.937,-1427"/>
<text text-anchor="start" x="313.437" y="-1412.2" font-family="Courier,monospace" font-size="11.00">«abstract»</text>
<text text-anchor="start" x="292.937" y="-1400.2" font-family="Courier,monospace" font-size="11.00">MtBatchSmsUpdate</text>
</g>
<!-- \\Clx\\Xms\\Api\\MtBatchBinarySmsUpdate&#45;&gt;\\Clx\\Xms\\Api\\MtBatchSmsUpdate -->
<g id="edge5" class="edge"><title>\\Clx\\Xms\\Api\\MtBatchBinarySmsUpdate&#45;&gt;\\Clx\\Xms\\Api\\MtBatchSmsUpdate</title>
<path fill="none" stroke="black" d="M591.004,-1429.19C538.406,-1424.81 470.731,-1419.18 420.233,-1414.97"/>
<polygon fill="none" stroke="black" points="420.307,-1411.47 410.051,-1414.13 419.726,-1418.45 420.307,-1411.47"/>
</g>
<!-- \\Clx\\Xms\\Api\\MtBatchDryRunResult -->
<g id="node17" class="node"><title>\\Clx\\Xms\\Api\\MtBatchDryRunResult</title>
<polygon fill="none" stroke="black" points="746.373,-1562 601.373,-1562 601.373,-1526 746.373,-1526 746.373,-1562"/>
<text text-anchor="middle" x="673.873" y="-1541.2" font-family="Courier,monospace" font-size="11.00">MtBatchDryRunResult</text>
</g>
<!-- \\Clx\\Xms\\Api\\MtBatchSms -->
<g id="node18" class="node"><title>\\Clx\\Xms\\Api\\MtBatchSms</title>
<polygon fill="none" stroke="black" points="124,-1643 40,-1643 40,-1607 124,-1607 124,-1643"/>
<text text-anchor="start" x="48" y="-1628.2" font-family="Courier,monospace" font-size="11.00">«abstract»</text>
<text text-anchor="start" x="48" y="-1616.2" font-family="Courier,monospace" font-size="11.00">MtBatchSms</text>
</g>
<!-- \\Clx\\Xms\\Api\\MtBatchSmsCreate&#45;&gt;\\Clx\\Xms\\Api\\MtBatchSms -->
<g id="edge6" class="edge"><title>\\Clx\\Xms\\Api\\MtBatchSmsCreate&#45;&gt;\\Clx\\Xms\\Api\\MtBatchSms</title>
<path fill="none" stroke="black" d="M284.672,-1645.67C238.915,-1640.98 177.292,-1634.66 134.252,-1630.25"/>
<polygon fill="none" stroke="black" points="134.581,-1626.77 124.276,-1629.23 133.867,-1633.73 134.581,-1626.77"/>
</g>
<!-- \\Clx\\Xms\\Api\\MtBatchSmsResult&#45;&gt;\\Clx\\Xms\\Api\\MtBatchSms -->
<g id="edge7" class="edge"><title>\\Clx\\Xms\\Api\\MtBatchSmsResult&#45;&gt;\\Clx\\Xms\\Api\\MtBatchSms</title>
<path fill="none" stroke="black" d="M284.672,-1604.33C238.915,-1609.02 177.292,-1615.34 134.252,-1619.75"/>
<polygon fill="none" stroke="black" points="133.867,-1616.27 124.276,-1620.77 134.581,-1623.23 133.867,-1616.27"/>
</g>
<!-- \\Clx\\Xms\\Api\\MtBatchTextSmsCreate -->
<g id="node22" class="node"><title>\\Clx\\Xms\\Api\\MtBatchTextSmsCreate</title>
<polygon fill="none" stroke="black" points="749.873,-1670 597.873,-1670 597.873,-1634 749.873,-1634 749.873,-1670"/>
<text text-anchor="middle" x="673.873" y="-1649.2" font-family="Courier,monospace" font-size="11.00">MtBatchTextSmsCreate</text>
</g>
<!-- \\Clx\\Xms\\Api\\MtBatchTextSmsCreate&#45;&gt;\\Clx\\Xms\\Api\\MtBatchSmsCreate -->
<g id="edge8" class="edge"><title>\\Clx\\Xms\\Api\\MtBatchTextSmsCreate&#45;&gt;\\Clx\\Xms\\Api\\MtBatchSmsCreate</title>
<path fill="none" stroke="black" d="M597.625,-1652C544.188,-1652 472.874,-1652 420.23,-1652"/>
<polygon fill="none" stroke="black" points="419.961,-1648.5 409.961,-1652 419.961,-1655.5 419.961,-1648.5"/>
</g>
<!-- \\Clx\\Xms\\Api\\MtBatchTextSmsResult -->
<g id="node23" class="node"><title>\\Clx\\Xms\\Api\\MtBatchTextSmsResult</title>
<polygon fill="none" stroke="black" points="749.873,-1616 597.873,-1616 597.873,-1580 749.873,-1580 749.873,-1616"/>
<text text-anchor="middle" x="673.873" y="-1595.2" font-family="Courier,monospace" font-size="11.00">MtBatchTextSmsResult</text>
</g>
<!-- \\Clx\\Xms\\Api\\MtBatchTextSmsResult&#45;&gt;\\Clx\\Xms\\Api\\MtBatchSmsResult -->
<g id="edge9" class="edge"><title>\\Clx\\Xms\\Api\\MtBatchTextSmsResult&#45;&gt;\\Clx\\Xms\\Api\\MtBatchSmsResult</title>
<path fill="none" stroke="black" d="M597.625,-1598C544.188,-1598 472.874,-1598 420.23,-1598"/>
<polygon fill="none" stroke="black" points="419.961,-1594.5 409.961,-1598 419.961,-1601.5 419.961,-1594.5"/>
</g>
<!-- \\Clx\\Xms\\Api\\MtBatchTextSmsUpdate -->
<g id="node24" class="node"><title>\\Clx\\Xms\\Api\\MtBatchTextSmsUpdate</title>
<polygon fill="none" stroke="black" points="749.873,-1400 597.873,-1400 597.873,-1364 749.873,-1364 749.873,-1400"/>
<text text-anchor="middle" x="673.873" y="-1379.2" font-family="Courier,monospace" font-size="11.00">MtBatchTextSmsUpdate</text>
</g>
<!-- \\Clx\\Xms\\Api\\MtBatchTextSmsUpdate&#45;&gt;\\Clx\\Xms\\Api\\MtBatchSmsUpdate -->
<g id="edge10" class="edge"><title>\\Clx\\Xms\\Api\\MtBatchTextSmsUpdate&#45;&gt;\\Clx\\Xms\\Api\\MtBatchSmsUpdate</title>
<path fill="none" stroke="black" d="M597.625,-1388.26C544.188,-1392.71 472.874,-1398.64 420.23,-1403.03"/>
<polygon fill="none" stroke="black" points="419.637,-1399.56 409.961,-1403.88 420.217,-1406.54 419.637,-1399.56"/>
</g>
<!-- \\Clx\\Xms\\Api\\Page -->
<g id="node25" class="node"><title>\\Clx\\Xms\\Api\\Page</title>
<polygon fill="none" stroke="black" points="700.873,-1346 646.873,-1346 646.873,-1310 700.873,-1310 700.873,-1346"/>
<text text-anchor="middle" x="673.873" y="-1325.2" font-family="Courier,monospace" font-size="11.00">Page</text>
</g>
<!-- \\IteratorAggregate -->
<g id="node45" class="node"><title>\\IteratorAggregate</title>
<ellipse fill="none" stroke="black" cx="347.437" cy="-288" rx="98.5829" ry="18"/>
<text text-anchor="middle" x="347.437" y="-284.3" font-family="Times,serif" font-size="14.00" fill="gray">\IteratorAggregate</text>
</g>
<!-- \\Clx\\Xms\\Api\\Page&#45;&gt;\\IteratorAggregate -->
<g id="edge11" class="edge"><title>\\Clx\\Xms\\Api\\Page&#45;&gt;\\IteratorAggregate</title>
<path fill="none" stroke="black" stroke-dasharray="1,5" d="M646.696,-1328.92C623.01,-1328.2 589.126,-1322.99 570.873,-1301 432.101,-1133.84 638.591,-492.371 498.873,-326 486.814,-311.641 470.19,-302.281 452.376,-296.263"/>
<polygon fill="none" stroke="black" points="452.963,-292.784 442.378,-293.253 450.945,-299.487 452.963,-292.784"/>
</g>
<!-- \\Clx\\Xms\\Api\\Pages -->
<g id="node26" class="node"><title>\\Clx\\Xms\\Api\\Pages</title>
<polygon fill="none" stroke="black" points="700.873,-1292 646.873,-1292 646.873,-1256 700.873,-1256 700.873,-1292"/>
<text text-anchor="middle" x="673.873" y="-1271.2" font-family="Courier,monospace" font-size="11.00">Pages</text>
</g>
<!-- \\Clx\\Xms\\Api\\Pages&#45;&gt;\\IteratorAggregate -->
<g id="edge12" class="edge"><title>\\Clx\\Xms\\Api\\Pages&#45;&gt;\\IteratorAggregate</title>
<path fill="none" stroke="black" stroke-dasharray="1,5" d="M646.718,-1274.91C623.047,-1274.17 589.174,-1268.95 570.873,-1247 439.404,-1089.33 631.234,-482.923 498.873,-326 486.783,-311.667 470.146,-302.319 452.327,-296.304"/>
<polygon fill="none" stroke="black" points="452.912,-292.825 442.328,-293.296 450.895,-299.529 452.912,-292.825"/>
</g>
<!-- \\Clx\\Xms\\Api\\PagesIterator -->
<g id="node27" class="node"><title>\\Clx\\Xms\\Api\\PagesIterator</title>
<polygon fill="none" stroke="black" points="725.873,-1238 621.873,-1238 621.873,-1202 725.873,-1202 725.873,-1238"/>
<text text-anchor="middle" x="673.873" y="-1217.2" font-family="Courier,monospace" font-size="11.00">PagesIterator</text>
</g>
<!-- \\Iterator -->
<g id="node46" class="node"><title>\\Iterator</title>
<ellipse fill="none" stroke="black" cx="347.437" cy="-234" rx="50.0912" ry="18"/>
<text text-anchor="middle" x="347.437" y="-230.3" font-family="Times,serif" font-size="14.00" fill="gray">\Iterator</text>
</g>
<!-- \\Clx\\Xms\\Api\\PagesIterator&#45;&gt;\\Iterator -->
<g id="edge13" class="edge"><title>\\Clx\\Xms\\Api\\PagesIterator&#45;&gt;\\Iterator</title>
<path fill="none" stroke="black" stroke-dasharray="1,5" d="M621.655,-1218.42C602.925,-1215.11 583.301,-1207.92 570.873,-1193 437.917,-1033.4 638.197,-415.078 498.873,-261 475.829,-235.515 437.608,-228.903 405.46,-228.592"/>
<polygon fill="none" stroke="black" points="405.227,-225.095 395.263,-228.697 405.298,-232.094 405.227,-225.095"/>
</g>
<!-- \\Clx\\Xms\\Api\\ReportType -->
<g id="node28" class="node"><title>\\Clx\\Xms\\Api\\ReportType</title>
<polygon fill="none" stroke="black" points="715.873,-1184 631.873,-1184 631.873,-1148 715.873,-1148 715.873,-1184"/>
<text text-anchor="middle" x="673.873" y="-1163.2" font-family="Courier,monospace" font-size="11.00">ReportType</text>
</g>
<!-- \\Clx\\Xms\\Api\\Reset -->
<g id="node29" class="node"><title>\\Clx\\Xms\\Api\\Reset</title>
<polygon fill="none" stroke="black" points="700.873,-1130 646.873,-1130 646.873,-1094 700.873,-1094 700.873,-1130"/>
<text text-anchor="middle" x="673.873" y="-1109.2" font-family="Courier,monospace" font-size="11.00">Reset</text>
</g>
<!-- \\Clx\\Xms\\BatchFilter -->
<g id="node30" class="node"><title>\\Clx\\Xms\\BatchFilter</title>
<polygon fill="none" stroke="black" points="719.373,-1076 628.373,-1076 628.373,-1040 719.373,-1040 719.373,-1076"/>
<text text-anchor="middle" x="673.873" y="-1055.2" font-family="Courier,monospace" font-size="11.00">BatchFilter</text>
</g>
<!-- \\Clx\\Xms\\Client -->
<g id="node31" class="node"><title>\\Clx\\Xms\\Client</title>
<polygon fill="none" stroke="black" points="702.373,-428 645.373,-428 645.373,-392 702.373,-392 702.373,-428"/>
<text text-anchor="middle" x="673.873" y="-407.2" font-family="Courier,monospace" font-size="11.00">Client</text>
</g>
<!-- \\Psr\\Log\\LoggerAwareInterface -->
<g id="node47" class="node"><title>\\Psr\\Log\\LoggerAwareInterface</title>
<ellipse fill="none" stroke="black" cx="347.437" cy="-18" rx="151.373" ry="18"/>
<text text-anchor="middle" x="347.437" y="-14.3" font-family="Times,serif" font-size="14.00" fill="gray">\PsrLogLoggerAwareInterface</text>
</g>
<!-- \\Clx\\Xms\\Client&#45;&gt;\\Psr\\Log\\LoggerAwareInterface -->
<g id="edge14" class="edge"><title>\\Clx\\Xms\\Client&#45;&gt;\\Psr\\Log\\LoggerAwareInterface</title>
<path fill="none" stroke="black" stroke-dasharray="1,5" d="M645.098,-410.209C622.008,-408.826 589.948,-403.031 570.873,-383 464.954,-271.771 609.219,-151.839 498.873,-45 494.057,-40.3366 488.726,-36.3307 483.028,-32.8979"/>
<polygon fill="none" stroke="black" points="484.265,-29.5902 473.796,-27.9633 480.965,-35.7638 484.265,-29.5902"/>
</g>
<!-- \\Clx\\Xms\\DeliveryReportType -->
<g id="node32" class="node"><title>\\Clx\\Xms\\DeliveryReportType</title>
<polygon fill="none" stroke="black" points="742.873,-968 604.873,-968 604.873,-932 742.873,-932 742.873,-968"/>
<text text-anchor="middle" x="673.873" y="-947.2" font-family="Courier,monospace" font-size="11.00">DeliveryReportType</text>
</g>
<!-- \\Clx\\Xms\\Deserialize -->
<g id="node33" class="node"><title>\\Clx\\Xms\\Deserialize</title>
<polygon fill="none" stroke="black" points="719.373,-914 628.373,-914 628.373,-878 719.373,-878 719.373,-914"/>
<text text-anchor="middle" x="673.873" y="-893.2" font-family="Courier,monospace" font-size="11.00">Deserialize</text>
</g>
<!-- \\Clx\\Xms\\ErrorResponseException -->
<g id="node34" class="node"><title>\\Clx\\Xms\\ErrorResponseException</title>
<polygon fill="none" stroke="black" points="756.373,-1022 591.373,-1022 591.373,-986 756.373,-986 756.373,-1022"/>
<text text-anchor="middle" x="673.873" y="-1001.2" font-family="Courier,monospace" font-size="11.00">ErrorResponseException</text>
</g>
<!-- \\Clx\\Xms\\ApiException -->
<g id="node44" class="node"><title>\\Clx\\Xms\\ApiException</title>
<polygon fill="none" stroke="black" points="396.437,-752 298.437,-752 298.437,-716 396.437,-716 396.437,-752"/>
<text text-anchor="middle" x="347.437" y="-731.2" font-family="Courier,monospace" font-size="11.00">ApiException</text>
</g>
<!-- \\Clx\\Xms\\ErrorResponseException&#45;&gt;\\Clx\\Xms\\ApiException -->
<g id="edge16" class="edge"><title>\\Clx\\Xms\\ErrorResponseException&#45;&gt;\\Clx\\Xms\\ApiException</title>
<path fill="none" stroke="black" stroke-dasharray="1,5" d="M591.218,-986.978C584.112,-984.142 577.22,-980.841 570.873,-977 476.669,-919.997 398.356,-811.304 365.309,-760.902"/>
<polygon fill="none" stroke="black" points="368.044,-758.687 359.672,-752.195 362.168,-762.491 368.044,-758.687"/>
</g>
<!-- \\Exception -->
<g id="node48" class="node"><title>\\Exception</title>
<ellipse fill="none" stroke="black" cx="347.437" cy="-180" rx="50.8918" ry="18"/>
<text text-anchor="middle" x="347.437" y="-176.3" font-family="Times,serif" font-size="14.00" fill="gray">xception</text>
</g>
<!-- \\Clx\\Xms\\ErrorResponseException&#45;&gt;\\Exception -->
<g id="edge15" class="edge"><title>\\Clx\\Xms\\ErrorResponseException&#45;&gt;\\Exception</title>
<path fill="none" stroke="black" d="M591.05,-992.534C583.396,-988.638 576.437,-983.57 570.873,-977 459.814,-845.848 615.163,-333.537 498.873,-207 475.867,-181.966 438.203,-175.228 406.319,-174.743"/>
<polygon fill="none" stroke="black" points="406.179,-171.243 396.196,-174.789 406.212,-178.243 406.179,-171.243"/>
</g>
<!-- \\Clx\\Xms\\GroupFilter -->
<g id="node35" class="node"><title>\\Clx\\Xms\\GroupFilter</title>
<polygon fill="none" stroke="black" points="719.373,-806 628.373,-806 628.373,-770 719.373,-770 719.373,-806"/>
<text text-anchor="middle" x="673.873" y="-785.2" font-family="Courier,monospace" font-size="11.00">GroupFilter</text>
</g>
<!-- \\Clx\\Xms\\HttpCallException -->
<g id="node36" class="node"><title>\\Clx\\Xms\\HttpCallException</title>
<polygon fill="none" stroke="black" points="739.373,-644 608.373,-644 608.373,-608 739.373,-608 739.373,-644"/>
<text text-anchor="middle" x="673.873" y="-623.2" font-family="Courier,monospace" font-size="11.00">HttpCallException</text>
</g>
<!-- \\Clx\\Xms\\HttpCallException&#45;&gt;\\Clx\\Xms\\ApiException -->
<g id="edge18" class="edge"><title>\\Clx\\Xms\\HttpCallException&#45;&gt;\\Clx\\Xms\\ApiException</title>
<path fill="none" stroke="black" stroke-dasharray="1,5" d="M608.142,-642.19C595.714,-645.565 582.846,-649.244 570.873,-653 513.333,-671.051 448.677,-695.021 403.966,-712.193"/>
<polygon fill="none" stroke="black" points="402.529,-708.996 394.457,-715.859 405.046,-715.528 402.529,-708.996"/>
</g>
<!-- \\RuntimeException -->
<g id="node49" class="node"><title>\\RuntimeException</title>
<ellipse fill="none" stroke="black" cx="347.437" cy="-126" rx="100.182" ry="18"/>
<text text-anchor="middle" x="347.437" y="-122.3" font-family="Times,serif" font-size="14.00" fill="gray">\RuntimeException</text>
</g>
<!-- \\Clx\\Xms\\HttpCallException&#45;&gt;\\RuntimeException -->
<g id="edge17" class="edge"><title>\\Clx\\Xms\\HttpCallException&#45;&gt;\\RuntimeException</title>
<path fill="none" stroke="black" d="M608.216,-620.586C594.191,-616.487 580.65,-609.793 570.873,-599 436.072,-450.189 639.602,-296.218 498.873,-153 487.476,-141.401 472.915,-133.809 457.358,-128.969"/>
<polygon fill="none" stroke="black" points="458.131,-125.551 447.562,-126.299 456.29,-132.305 458.131,-125.551"/>
</g>
<!-- \\Clx\\Xms\\InboundsFilter -->
<g id="node37" class="node"><title>\\Clx\\Xms\\InboundsFilter</title>
<polygon fill="none" stroke="black" points="729.373,-698 618.373,-698 618.373,-662 729.373,-662 729.373,-698"/>
<text text-anchor="middle" x="673.873" y="-677.2" font-family="Courier,monospace" font-size="11.00">InboundsFilter</text>
</g>
<!-- \\Clx\\Xms\\NotFoundException -->
<g id="node38" class="node"><title>\\Clx\\Xms\\NotFoundException</title>
<polygon fill="none" stroke="black" points="739.373,-860 608.373,-860 608.373,-824 739.373,-824 739.373,-860"/>
<text text-anchor="middle" x="673.873" y="-839.2" font-family="Courier,monospace" font-size="11.00">NotFoundException</text>
</g>
<!-- \\Clx\\Xms\\NotFoundException&#45;&gt;\\Clx\\Xms\\ApiException -->
<g id="edge20" class="edge"><title>\\Clx\\Xms\\NotFoundException&#45;&gt;\\Clx\\Xms\\ApiException</title>
<path fill="none" stroke="black" stroke-dasharray="1,5" d="M608.142,-825.81C595.714,-822.435 582.846,-818.756 570.873,-815 513.333,-796.949 448.677,-772.979 403.966,-755.807"/>
<polygon fill="none" stroke="black" points="405.046,-752.472 394.457,-752.141 402.529,-759.004 405.046,-752.472"/>
</g>
<!-- \\Clx\\Xms\\NotFoundException&#45;&gt;\\Exception -->
<g id="edge19" class="edge"><title>\\Clx\\Xms\\NotFoundException&#45;&gt;\\Exception</title>
<path fill="none" stroke="black" d="M608.153,-836.954C594.044,-832.853 580.48,-826.066 570.873,-815 392.483,-609.522 685.454,-405.069 498.873,-207 475.642,-182.339 438.162,-175.561 406.425,-174.962"/>
<polygon fill="none" stroke="black" points="406.346,-171.462 396.349,-174.97 406.351,-178.462 406.346,-171.462"/>
</g>
<!-- \\Clx\\Xms\\Serialize -->
<g id="node39" class="node"><title>\\Clx\\Xms\\Serialize</title>
<polygon fill="none" stroke="black" points="712.373,-590 635.373,-590 635.373,-554 712.373,-554 712.373,-590"/>
<text text-anchor="middle" x="673.873" y="-569.2" font-family="Courier,monospace" font-size="11.00">Serialize</text>
</g>
<!-- \\Clx\\Xms\\Tutorial -->
<g id="node40" class="node"><title>\\Clx\\Xms\\Tutorial</title>
<polygon fill="none" stroke="black" points="709.373,-536 638.373,-536 638.373,-500 709.373,-500 709.373,-536"/>
<text text-anchor="middle" x="673.873" y="-515.2" font-family="Courier,monospace" font-size="11.00">Tutorial</text>
</g>
<!-- \\Clx\\Xms\\UnauthorizedException -->
<g id="node41" class="node"><title>\\Clx\\Xms\\UnauthorizedException</title>
<polygon fill="none" stroke="black" points="752.873,-752 594.873,-752 594.873,-716 752.873,-716 752.873,-752"/>
<text text-anchor="middle" x="673.873" y="-731.2" font-family="Courier,monospace" font-size="11.00">UnauthorizedException</text>
</g>
<!-- \\Clx\\Xms\\UnauthorizedException&#45;&gt;\\Clx\\Xms\\ApiException -->
<g id="edge22" class="edge"><title>\\Clx\\Xms\\UnauthorizedException&#45;&gt;\\Clx\\Xms\\ApiException</title>
<path fill="none" stroke="black" stroke-dasharray="1,5" d="M594.75,-734C536.917,-734 459.375,-734 406.857,-734"/>
<polygon fill="none" stroke="black" points="406.701,-730.5 396.701,-734 406.701,-737.5 406.701,-730.5"/>
</g>
<!-- \\Clx\\Xms\\UnauthorizedException&#45;&gt;\\Exception -->
<g id="edge21" class="edge"><title>\\Clx\\Xms\\UnauthorizedException&#45;&gt;\\Exception</title>
<path fill="none" stroke="black" d="M594.861,-723.896C585.793,-719.86 577.451,-714.387 570.873,-707 421.566,-539.327 654.861,-368.476 498.873,-207 475.417,-182.719 438.118,-175.904 406.529,-175.191"/>
<polygon fill="none" stroke="black" points="406.509,-171.691 396.498,-175.16 406.487,-178.691 406.509,-171.691"/>
</g>
<!-- \\Clx\\Xms\\UnexpectedResponseException -->
<g id="node42" class="node"><title>\\Clx\\Xms\\UnexpectedResponseException</title>
<polygon fill="none" stroke="black" points="773.373,-482 574.373,-482 574.373,-446 773.373,-446 773.373,-482"/>
<text text-anchor="middle" x="673.873" y="-461.2" font-family="Courier,monospace" font-size="11.00">UnexpectedResponseException</text>
</g>
<!-- \\Clx\\Xms\\UnexpectedResponseException&#45;&gt;\\Clx\\Xms\\ApiException -->
<g id="edge24" class="edge"><title>\\Clx\\Xms\\UnexpectedResponseException&#45;&gt;\\Clx\\Xms\\ApiException</title>
<path fill="none" stroke="black" stroke-dasharray="1,5" d="M588.596,-482.093C582.419,-484.681 576.437,-487.633 570.873,-491 476.669,-548.003 398.356,-656.696 365.309,-707.098"/>
<polygon fill="none" stroke="black" points="362.168,-705.509 359.672,-715.805 368.044,-709.313 362.168,-705.509"/>
</g>
<!-- \\UnexpectedValueException -->
<g id="node50" class="node"><title>\\UnexpectedValueException</title>
<ellipse fill="none" stroke="black" cx="347.437" cy="-72" rx="141.875" ry="18"/>
<text text-anchor="middle" x="347.437" y="-68.3" font-family="Times,serif" font-size="14.00" fill="gray">\UnexpectedValueException</text>
</g>
<!-- \\Clx\\Xms\\UnexpectedResponseException&#45;&gt;\\UnexpectedValueException -->
<g id="edge23" class="edge"><title>\\Clx\\Xms\\UnexpectedResponseException&#45;&gt;\\UnexpectedValueException</title>
<path fill="none" stroke="black" d="M581.316,-445.823C577.545,-443.243 574.031,-440.316 570.873,-437 464.954,-325.771 609.219,-205.839 498.873,-99 493.369,-93.6704 487.192,-89.1996 480.565,-85.4616"/>
<polygon fill="none" stroke="black" points="481.778,-82.1549 471.269,-80.8068 478.644,-88.414 481.778,-82.1549"/>
</g>
<!-- \\Clx\\Xms\\Version -->
<g id="node43" class="node"><title>\\Clx\\Xms\\Version</title>
<polygon fill="none" stroke="black" points="705.873,-374 641.873,-374 641.873,-338 705.873,-338 705.873,-374"/>
<text text-anchor="middle" x="673.873" y="-353.2" font-family="Courier,monospace" font-size="11.00">Version</text>
</g>
</g>
</svg>
