<?xml version="1.0" encoding="UTF-8" standalone="no"?>
<!DOCTYPE svg PUBLIC "-//W3C//DTD SVG 1.1//EN"
 "http://www.w3.org/Graphics/SVG/1.1/DTD/svg11.dtd">
<!-- Generated by graphviz version 2.40.1 (20161225.0304)
 -->
<!-- Title: G Pages: 1 -->
<svg width="825pt" height="2500pt"
 viewBox="0.00 0.00 824.87 2500.00" xmlns="http://www.w3.org/2000/svg" xmlns:xlink="http://www.w3.org/1999/xlink">
<g id="graph0" class="graph" transform="scale(1 1) rotate(0) translate(4 2496)">
<title>G</title>
<polygon fill="#ffffff" stroke="transparent" points="-4,4 -4,-2496 820.8731,-2496 820.8731,4 -4,4"/>
<g id="clust1" class="cluster">
<title>cluster_Global</title>
<path fill="none" stroke="#c0c0c0" d="M20,-314C20,-314 796.8731,-314 796.8731,-314 802.8731,-314 808.8731,-320 808.8731,-326 808.8731,-326 808.8731,-2472 808.8731,-2472 808.8731,-2478 802.8731,-2484 796.8731,-2484 796.8731,-2484 20,-2484 20,-2484 14,-2484 8,-2478 8,-2472 8,-2472 8,-326 8,-326 8,-320 14,-314 20,-314"/>
<text text-anchor="middle" x="408.4366" y="-2471.2" font-family="Times,serif" font-size="11.00" fill="#c0c0c0">Global</text>
</g>
<g id="clust2" class="cluster">
<title>cluster_\Clx</title>
<path fill="none" stroke="#c0c0c0" d="M28,-322C28,-322 788.8731,-322 788.8731,-322 794.8731,-322 800.8731,-328 800.8731,-334 800.8731,-334 800.8731,-2444 800.8731,-2444 800.8731,-2450 794.8731,-2456 788.8731,-2456 788.8731,-2456 28,-2456 28,-2456 22,-2456 16,-2450 16,-2444 16,-2444 16,-334 16,-334 16,-328 22,-322 28,-322"/>
<text text-anchor="middle" x="408.4366" y="-2443.2" font-family="Times,serif" font-size="11.00" fill="#c0c0c0">Clx</text>
</g>
<g id="clust3" class="cluster">
<title>cluster_\Clx\Xms</title>
<path fill="none" stroke="#c0c0c0" d="M36,-330C36,-330 780.8731,-330 780.8731,-330 786.8731,-330 792.8731,-336 792.8731,-342 792.8731,-342 792.8731,-2416 792.8731,-2416 792.8731,-2422 786.8731,-2428 780.8731,-2428 780.8731,-2428 36,-2428 36,-2428 30,-2428 24,-2422 24,-2416 24,-2416 24,-342 24,-342 24,-336 30,-330 36,-330"/>
<text text-anchor="middle" x="408.4366" y="-2415.2" font-family="Times,serif" font-size="11.00" fill="#c0c0c0">Xms</text>
</g>
<g id="clust4" class="cluster">
<title>cluster_\Clx\Xms\Api</title>
<path fill="none" stroke="#c0c0c0" d="M44,-1086C44,-1086 772.8731,-1086 772.8731,-1086 778.8731,-1086 784.8731,-1092 784.8731,-1098 784.8731,-1098 784.8731,-2388 784.8731,-2388 784.8731,-2394 778.8731,-2400 772.8731,-2400 772.8731,-2400 44,-2400 44,-2400 38,-2400 32,-2394 32,-2388 32,-2388 32,-1098 32,-1098 32,-1092 38,-1086 44,-1086"/>
<text text-anchor="middle" x="408.4366" y="-2387.2" font-family="Times,serif" font-size="11.00" fill="#c0c0c0">Api</text>
</g>
<!-- \\Clx\\Xms\\Api\\MoSms -->
<g id="node1" class="node">
<title>\\Clx\\Xms\\Api\\MoSms</title>
<polygon fill="none" stroke="#000000" points="389.4366,-2264 305.4366,-2264 305.4366,-2228 389.4366,-2228 389.4366,-2264"/>
<text text-anchor="start" x="313.4366" y="-2249.2" font-family="Courier,monospace" font-size="11.00" fill="#000000">«abstract»</text>
<text text-anchor="start" x="330.4366" y="-2237.2" font-family="Courier,monospace" font-size="11.00" fill="#000000">MoSms</text>
</g>
<!-- \\Clx\\Xms\\Api\\BatchDeliveryReport -->
<g id="node2" class="node">
<title>\\Clx\\Xms\\Api\\BatchDeliveryReport</title>
<polygon fill="none" stroke="#000000" points="746.3731,-2372 601.3731,-2372 601.3731,-2336 746.3731,-2336 746.3731,-2372"/>
<text text-anchor="middle" x="673.8731" y="-2351.2" font-family="Courier,monospace" font-size="11.00" fill="#000000">BatchDeliveryReport</text>
</g>
<!-- \\Clx\\Xms\\Api\\MtBatchTextSmsUpdate -->
<g id="node3" class="node">
<title>\\Clx\\Xms\\Api\\MtBatchTextSmsUpdate</title>
<polygon fill="none" stroke="#000000" points="749.8731,-1616 597.8731,-1616 597.8731,-1580 749.8731,-1580 749.8731,-1616"/>
<text text-anchor="middle" x="673.8731" y="-1595.2" font-family="Courier,monospace" font-size="11.00" fill="#000000">MtBatchTextSmsUpdate</text>
</g>
<!-- \\Clx\\Xms\\Api\\MtBatchSmsUpdate -->
<g id="node22" class="node">
<title>\\Clx\\Xms\\Api\\MtBatchSmsUpdate</title>
<polygon fill="none" stroke="#000000" points="409.9366,-1535 284.9366,-1535 284.9366,-1499 409.9366,-1499 409.9366,-1535"/>
<text text-anchor="start" x="313.4366" y="-1520.2" font-family="Courier,monospace" font-size="11.00" fill="#000000">«abstract»</text>
<text text-anchor="start" x="292.9366" y="-1508.2" font-family="Courier,monospace" font-size="11.00" fill="#000000">MtBatchSmsUpdate</text>
</g>
<!-- \\Clx\\Xms\\Api\\MtBatchTextSmsUpdate&#45;&gt;\\Clx\\Xms\\Api\\MtBatchSmsUpdate -->
<g id="edge3" class="edge">
<title>\\Clx\\Xms\\Api\\MtBatchTextSmsUpdate&#45;&gt;\\Clx\\Xms\\Api\\MtBatchSmsUpdate</title>
<path fill="none" stroke="#000000" d="M601.0207,-1579.9228C547.0672,-1566.5351 473.8768,-1548.3741 419.9937,-1535.0039"/>
<polygon fill="none" stroke="#000000" points="420.7148,-1531.5768 410.1662,-1532.5654 419.029,-1538.3707 420.7148,-1531.5768"/>
</g>
<!-- \\Clx\\Xms\\Api\\ReportType -->
<g id="node4" class="node">
<title>\\Clx\\Xms\\Api\\ReportType</title>
<polygon fill="none" stroke="#000000" points="715.8731,-2264 631.8731,-2264 631.8731,-2228 715.8731,-2228 715.8731,-2264"/>
<text text-anchor="middle" x="673.8731" y="-2243.2" font-family="Courier,monospace" font-size="11.00" fill="#000000">ReportType</text>
</g>
<!-- \\Clx\\Xms\\Api\\MtBatchBinarySmsResult -->
<g id="node5" class="node">
<title>\\Clx\\Xms\\Api\\MtBatchBinarySmsResult</title>
<polygon fill="none" stroke="#000000" points="756.3731,-2102 591.3731,-2102 591.3731,-2066 756.3731,-2066 756.3731,-2102"/>
<text text-anchor="middle" x="673.8731" y="-2081.2" font-family="Courier,monospace" font-size="11.00" fill="#000000">MtBatchBinarySmsResult</text>
</g>
<!-- \\Clx\\Xms\\Api\\MtBatchSmsResult -->
<g id="node23" class="node">
<title>\\Clx\\Xms\\Api\\MtBatchSmsResult</title>
<polygon fill="none" stroke="#000000" points="409.9366,-1724 284.9366,-1724 284.9366,-1688 409.9366,-1688 409.9366,-1724"/>
<text text-anchor="start" x="313.4366" y="-1709.2" font-family="Courier,monospace" font-size="11.00" fill="#000000">«abstract»</text>
<text text-anchor="start" x="292.9366" y="-1697.2" font-family="Courier,monospace" font-size="11.00" fill="#000000">MtBatchSmsResult</text>
</g>
<!-- \\Clx\\Xms\\Api\\MtBatchBinarySmsResult&#45;&gt;\\Clx\\Xms\\Api\\MtBatchSmsResult -->
<g id="edge6" class="edge">
<title>\\Clx\\Xms\\Api\\MtBatchBinarySmsResult&#45;&gt;\\Clx\\Xms\\Api\\MtBatchSmsResult</title>
<path fill="none" stroke="#000000" d="M591.1707,-2068.4199C583.967,-2065.2852 577.0715,-2061.5207 570.8731,-2057 452.3522,-1970.5586 381.2668,-1800.3865 356.9404,-1733.7191"/>
<polygon fill="none" stroke="#000000" points="360.2319,-1732.5288 353.5636,-1724.2957 353.6422,-1734.8902 360.2319,-1732.5288"/>
</g>
<!-- \\Clx\\Xms\\Api\\MtBatchDryRunResult -->
<g id="node6" class="node">
<title>\\Clx\\Xms\\Api\\MtBatchDryRunResult</title>
<polygon fill="none" stroke="#000000" points="746.3731,-2156 601.3731,-2156 601.3731,-2120 746.3731,-2120 746.3731,-2156"/>
<text text-anchor="middle" x="673.8731" y="-2135.2" font-family="Courier,monospace" font-size="11.00" fill="#000000">MtBatchDryRunResult</text>
</g>
<!-- \\Clx\\Xms\\Api\\MoTextSms -->
<g id="node7" class="node">
<title>\\Clx\\Xms\\Api\\MoTextSms</title>
<polygon fill="none" stroke="#000000" points="712.3731,-2318 635.3731,-2318 635.3731,-2282 712.3731,-2282 712.3731,-2318"/>
<text text-anchor="middle" x="673.8731" y="-2297.2" font-family="Courier,monospace" font-size="11.00" fill="#000000">MoTextSms</text>
</g>
<!-- \\Clx\\Xms\\Api\\MoTextSms&#45;&gt;\\Clx\\Xms\\Api\\MoSms -->
<g id="edge7" class="edge">
<title>\\Clx\\Xms\\Api\\MoTextSms&#45;&gt;\\Clx\\Xms\\Api\\MoSms</title>
<path fill="none" stroke="#000000" d="M635.1447,-2293.5934C576.5514,-2283.9008 465.2606,-2265.4908 399.5935,-2254.6279"/>
<polygon fill="none" stroke="#000000" points="399.8982,-2251.1309 389.4611,-2252.9518 398.7557,-2258.037 399.8982,-2251.1309"/>
</g>
<!-- \\Clx\\Xms\\Api\\GroupUpdate -->
<g id="node8" class="node">
<title>\\Clx\\Xms\\Api\\GroupUpdate</title>
<polygon fill="none" stroke="#000000" points="719.3731,-2048 628.3731,-2048 628.3731,-2012 719.3731,-2012 719.3731,-2048"/>
<text text-anchor="middle" x="673.8731" y="-2027.2" font-family="Courier,monospace" font-size="11.00" fill="#000000">GroupUpdate</text>
</g>
<!-- \\Clx\\Xms\\Api\\Error -->
<g id="node9" class="node">
<title>\\Clx\\Xms\\Api\\Error</title>
<polygon fill="none" stroke="#000000" points="700.8731,-1994 646.8731,-1994 646.8731,-1958 700.8731,-1958 700.8731,-1994"/>
<text text-anchor="middle" x="673.8731" y="-1973.2" font-family="Courier,monospace" font-size="11.00" fill="#000000">Error</text>
</g>
<!-- \\Clx\\Xms\\Api\\MtBatchSms -->
<g id="node10" class="node">
<title>\\Clx\\Xms\\Api\\MtBatchSms</title>
<polygon fill="none" stroke="#000000" points="124,-1562 40,-1562 40,-1526 124,-1526 124,-1562"/>
<text text-anchor="start" x="48" y="-1547.2" font-family="Courier,monospace" font-size="11.00" fill="#000000">«abstract»</text>
<text text-anchor="start" x="48" y="-1535.2" font-family="Courier,monospace" font-size="11.00" fill="#000000">MtBatchSms</text>
</g>
<!-- \\Clx\\Xms\\Api\\GroupAutoUpdate -->
<g id="node11" class="node">
<title>\\Clx\\Xms\\Api\\GroupAutoUpdate</title>
<polygon fill="none" stroke="#000000" points="732.8731,-1940 614.8731,-1940 614.8731,-1904 732.8731,-1904 732.8731,-1940"/>
<text text-anchor="middle" x="673.8731" y="-1919.2" font-family="Courier,monospace" font-size="11.00" fill="#000000">GroupAutoUpdate</text>
</g>
<!-- \\Clx\\Xms\\Api\\BatchDeliveryReportStatus -->
<g id="node12" class="node">
<title>\\Clx\\Xms\\Api\\BatchDeliveryReportStatus</title>
<polygon fill="none" stroke="#000000" points="766.3731,-1886 581.3731,-1886 581.3731,-1850 766.3731,-1850 766.3731,-1886"/>
<text text-anchor="middle" x="673.8731" y="-1865.2" font-family="Courier,monospace" font-size="11.00" fill="#000000">BatchDeliveryReportStatus</text>
</g>
<!-- \\Clx\\Xms\\Api\\DeliveryStatus -->
<g id="node13" class="node">
<title>\\Clx\\Xms\\Api\\DeliveryStatus</title>
<polygon fill="none" stroke="#000000" points="729.3731,-1832 618.3731,-1832 618.3731,-1796 729.3731,-1796 729.3731,-1832"/>
<text text-anchor="middle" x="673.8731" y="-1811.2" font-family="Courier,monospace" font-size="11.00" fill="#000000">DeliveryStatus</text>
</g>
<!-- \\Clx\\Xms\\Api\\Reset -->
<g id="node14" class="node">
<title>\\Clx\\Xms\\Api\\Reset</title>
<polygon fill="none" stroke="#000000" points="700.8731,-1778 646.8731,-1778 646.8731,-1742 700.8731,-1742 700.8731,-1778"/>
<text text-anchor="middle" x="673.8731" y="-1757.2" font-family="Courier,monospace" font-size="11.00" fill="#000000">Reset</text>
</g>
<!-- \\Clx\\Xms\\Api\\PagesIterator -->
<g id="node15" class="node">
<title>\\Clx\\Xms\\Api\\PagesIterator</title>
<polygon fill="none" stroke="#000000" points="725.8731,-1238 621.8731,-1238 621.8731,-1202 725.8731,-1202 725.8731,-1238"/>
<text text-anchor="middle" x="673.8731" y="-1217.2" font-family="Courier,monospace" font-size="11.00" fill="#000000">PagesIterator</text>
</g>
<!-- \\Iterator -->
<g id="node47" class="node">
<title>\\Iterator</title>
<ellipse fill="none" stroke="#000000" cx="347.4366" cy="-288" rx="50.0912" ry="18"/>
<text text-anchor="middle" x="347.4366" y="-284.3" font-family="Times,serif" font-size="14.00" fill="#c0c0c0">\Iterator</text>
</g>
<!-- \\Clx\\Xms\\Api\\PagesIterator&#45;&gt;\\Iterator -->
<g id="edge10" class="edge">
<title>\\Clx\\Xms\\Api\\PagesIterator&#45;&gt;\\Iterator</title>
<path fill="none" stroke="#000000" stroke-dasharray="1,5" d="M621.6722,-1218.4136C602.9283,-1215.0757 583.3575,-1207.8629 570.8731,-1193 446.5275,-1044.9641 623.9952,-473.3802 498.8731,-326 476.7114,-299.8959 439.5454,-290.3015 407.58,-287.2794"/>
<polygon fill="none" stroke="#000000" points="407.6437,-283.7745 397.4099,-286.5165 407.1201,-290.7548 407.6437,-283.7745"/>
</g>
<!-- \\Clx\\Xms\\Api\\DryRunPerRecipient -->
<g id="node16" class="node">
<title>\\Clx\\Xms\\Api\\DryRunPerRecipient</title>
<polygon fill="none" stroke="#000000" points="742.8731,-1670 604.8731,-1670 604.8731,-1634 742.8731,-1634 742.8731,-1670"/>
<text text-anchor="middle" x="673.8731" y="-1649.2" font-family="Courier,monospace" font-size="11.00" fill="#000000">DryRunPerRecipient</text>
</g>
<!-- \\Clx\\Xms\\Api\\MoBinarySms -->
<g id="node17" class="node">
<title>\\Clx\\Xms\\Api\\MoBinarySms</title>
<polygon fill="none" stroke="#000000" points="719.3731,-2210 628.3731,-2210 628.3731,-2174 719.3731,-2174 719.3731,-2210"/>
<text text-anchor="middle" x="673.8731" y="-2189.2" font-family="Courier,monospace" font-size="11.00" fill="#000000">MoBinarySms</text>
</g>
<!-- \\Clx\\Xms\\Api\\MoBinarySms&#45;&gt;\\Clx\\Xms\\Api\\MoSms -->
<g id="edge11" class="edge">
<title>\\Clx\\Xms\\Api\\MoBinarySms&#45;&gt;\\Clx\\Xms\\Api\\MoSms</title>
<path fill="none" stroke="#000000" d="M628.1398,-2199.5653C568.0529,-2209.5051 462.7761,-2226.9202 399.6355,-2237.3651"/>
<polygon fill="none" stroke="#000000" points="398.7919,-2233.957 389.4972,-2239.0422 399.9344,-2240.8632 398.7919,-2233.957"/>
</g>
<!-- \\Clx\\Xms\\Api\\GroupCreate -->
<g id="node18" class="node">
<title>\\Clx\\Xms\\Api\\GroupCreate</title>
<polygon fill="none" stroke="#000000" points="719.3731,-1562 628.3731,-1562 628.3731,-1526 719.3731,-1526 719.3731,-1562"/>
<text text-anchor="middle" x="673.8731" y="-1541.2" font-family="Courier,monospace" font-size="11.00" fill="#000000">GroupCreate</text>
</g>
<!-- \\Clx\\Xms\\Api\\MtBatchSmsCreate -->
<g id="node19" class="node">
<title>\\Clx\\Xms\\Api\\MtBatchSmsCreate</title>
<polygon fill="none" stroke="#000000" points="409.9366,-1400 284.9366,-1400 284.9366,-1364 409.9366,-1364 409.9366,-1400"/>
<text text-anchor="start" x="313.4366" y="-1385.2" font-family="Courier,monospace" font-size="11.00" fill="#000000">«abstract»</text>
<text text-anchor="start" x="292.9366" y="-1373.2" font-family="Courier,monospace" font-size="11.00" fill="#000000">MtBatchSmsCreate</text>
</g>
<!-- \\Clx\\Xms\\Api\\MtBatchSmsCreate&#45;&gt;\\Clx\\Xms\\Api\\MtBatchSms -->
<g id="edge14" class="edge">
<title>\\Clx\\Xms\\Api\\MtBatchSmsCreate&#45;&gt;\\Clx\\Xms\\Api\\MtBatchSms</title>
<path fill="none" stroke="#000000" d="M317.7603,-1400.1119C269.5478,-1429.5367 174.2271,-1487.7124 120.7374,-1520.358"/>
<polygon fill="none" stroke="#000000" points="118.6038,-1517.5597 111.8913,-1525.7569 122.2505,-1523.5348 118.6038,-1517.5597"/>
</g>
<!-- \\Clx\\Xms\\Api\\BatchRecipientDeliveryReport -->
<g id="node20" class="node">
<title>\\Clx\\Xms\\Api\\BatchRecipientDeliveryReport</title>
<polygon fill="none" stroke="#000000" points="776.8731,-1508 570.8731,-1508 570.8731,-1472 776.8731,-1472 776.8731,-1508"/>
<text text-anchor="middle" x="673.8731" y="-1487.2" font-family="Courier,monospace" font-size="11.00" fill="#000000">BatchRecipientDeliveryReport</text>
</g>
<!-- \\Clx\\Xms\\Api\\MtBatchBinarySmsCreate -->
<g id="node21" class="node">
<title>\\Clx\\Xms\\Api\\MtBatchBinarySmsCreate</title>
<polygon fill="none" stroke="#000000" points="756.3731,-1346 591.3731,-1346 591.3731,-1310 756.3731,-1310 756.3731,-1346"/>
<text text-anchor="middle" x="673.8731" y="-1325.2" font-family="Courier,monospace" font-size="11.00" fill="#000000">MtBatchBinarySmsCreate</text>
</g>
<!-- \\Clx\\Xms\\Api\\MtBatchBinarySmsCreate&#45;&gt;\\Clx\\Xms\\Api\\MtBatchSmsCreate -->
<g id="edge15" class="edge">
<title>\\Clx\\Xms\\Api\\MtBatchBinarySmsCreate&#45;&gt;\\Clx\\Xms\\Api\\MtBatchSmsCreate</title>
<path fill="none" stroke="#000000" d="M591.1919,-1343.7605C562.0546,-1349.1444 529.0468,-1355.0512 498.8731,-1360 473.2964,-1364.1948 445.2208,-1368.3875 420.2653,-1371.9704"/>
<polygon fill="none" stroke="#000000" points="419.548,-1368.5372 410.1428,-1373.415 420.537,-1375.467 419.548,-1368.5372"/>
</g>
<!-- \\Clx\\Xms\\Api\\MtBatchSmsResult&#45;&gt;\\Clx\\Xms\\Api\\MtBatchSms -->
<g id="edge16" class="edge">
<title>\\Clx\\Xms\\Api\\MtBatchSmsResult&#45;&gt;\\Clx\\Xms\\Api\\MtBatchSms</title>
<path fill="none" stroke="#000000" d="M317.7603,-1687.8881C269.5478,-1658.4633 174.2271,-1600.2876 120.7374,-1567.642"/>
<polygon fill="none" stroke="#000000" points="122.2505,-1564.4652 111.8913,-1562.2431 118.6038,-1570.4403 122.2505,-1564.4652"/>
</g>
<!-- \\Clx\\Xms\\Api\\MtBatchTextSmsResult -->
<g id="node24" class="node">
<title>\\Clx\\Xms\\Api\\MtBatchTextSmsResult</title>
<polygon fill="none" stroke="#000000" points="749.8731,-1724 597.8731,-1724 597.8731,-1688 749.8731,-1688 749.8731,-1724"/>
<text text-anchor="middle" x="673.8731" y="-1703.2" font-family="Courier,monospace" font-size="11.00" fill="#000000">MtBatchTextSmsResult</text>
</g>
<!-- \\Clx\\Xms\\Api\\MtBatchTextSmsResult&#45;&gt;\\Clx\\Xms\\Api\\MtBatchSmsResult -->
<g id="edge17" class="edge">
<title>\\Clx\\Xms\\Api\\MtBatchTextSmsResult&#45;&gt;\\Clx\\Xms\\Api\\MtBatchSmsResult</title>
<path fill="none" stroke="#000000" d="M597.7502,-1706C544.2336,-1706 473.0501,-1706 420.2764,-1706"/>
<polygon fill="none" stroke="#000000" points="419.9778,-1702.5001 409.9778,-1706 419.9777,-1709.5001 419.9778,-1702.5001"/>
</g>
<!-- \\Clx\\Xms\\Api\\MtBatchTextSmsCreate -->
<g id="node25" class="node">
<title>\\Clx\\Xms\\Api\\MtBatchTextSmsCreate</title>
<polygon fill="none" stroke="#000000" points="749.8731,-1400 597.8731,-1400 597.8731,-1364 749.8731,-1364 749.8731,-1400"/>
<text text-anchor="middle" x="673.8731" y="-1379.2" font-family="Courier,monospace" font-size="11.00" fill="#000000">MtBatchTextSmsCreate</text>
</g>
<!-- \\Clx\\Xms\\Api\\MtBatchTextSmsCreate&#45;&gt;\\Clx\\Xms\\Api\\MtBatchSmsCreate -->
<g id="edge18" class="edge">
<title>\\Clx\\Xms\\Api\\MtBatchTextSmsCreate&#45;&gt;\\Clx\\Xms\\Api\\MtBatchSmsCreate</title>
<path fill="none" stroke="#000000" d="M597.7502,-1382C544.2336,-1382 473.0501,-1382 420.2764,-1382"/>
<polygon fill="none" stroke="#000000" points="419.9778,-1378.5001 409.9778,-1382 419.9777,-1385.5001 419.9778,-1378.5001"/>
</g>
<!-- \\Clx\\Xms\\Api\\GroupResult -->
<g id="node26" class="node">
<title>\\Clx\\Xms\\Api\\GroupResult</title>
<polygon fill="none" stroke="#000000" points="719.3731,-1292 628.3731,-1292 628.3731,-1256 719.3731,-1256 719.3731,-1292"/>
<text text-anchor="middle" x="673.8731" y="-1271.2" font-family="Courier,monospace" font-size="11.00" fill="#000000">GroupResult</text>
</g>
<!-- \\Clx\\Xms\\Api\\Pages -->
<g id="node27" class="node">
<title>\\Clx\\Xms\\Api\\Pages</title>
<polygon fill="none" stroke="#000000" points="700.8731,-1184 646.8731,-1184 646.8731,-1148 700.8731,-1148 700.8731,-1184"/>
<text text-anchor="middle" x="673.8731" y="-1163.2" font-family="Courier,monospace" font-size="11.00" fill="#000000">Pages</text>
</g>
<!-- \\IteratorAggregate -->
<g id="node50" class="node">
<title>\\IteratorAggregate</title>
<ellipse fill="none" stroke="#000000" cx="347.4366" cy="-234" rx="98.5829" ry="18"/>
<text text-anchor="middle" x="347.4366" y="-230.3" font-family="Times,serif" font-size="14.00" fill="#c0c0c0">\IteratorAggregate</text>
</g>
<!-- \\Clx\\Xms\\Api\\Pages&#45;&gt;\\IteratorAggregate -->
<g id="edge20" class="edge">
<title>\\Clx\\Xms\\Api\\Pages&#45;&gt;\\IteratorAggregate</title>
<path fill="none" stroke="#000000" stroke-dasharray="1,5" d="M646.5638,-1166.9431C622.7286,-1166.1492 589.1723,-1160.8084 570.8731,-1139 445.0381,-989.0337 630.5994,-405.819 498.8731,-261 487.3817,-248.3664 472.1817,-240.3598 455.8429,-235.4568"/>
<polygon fill="none" stroke="#000000" points="456.6705,-232.0556 446.1107,-232.9171 454.9029,-238.8288 456.6705,-232.0556"/>
</g>
<!-- \\Clx\\Xms\\Api\\MtBatchBinarySmsUpdate -->
<g id="node28" class="node">
<title>\\Clx\\Xms\\Api\\MtBatchBinarySmsUpdate</title>
<polygon fill="none" stroke="#000000" points="756.3731,-1454 591.3731,-1454 591.3731,-1418 756.3731,-1418 756.3731,-1454"/>
<text text-anchor="middle" x="673.8731" y="-1433.2" font-family="Courier,monospace" font-size="11.00" fill="#000000">MtBatchBinarySmsUpdate</text>
</g>
<!-- \\Clx\\Xms\\Api\\MtBatchBinarySmsUpdate&#45;&gt;\\Clx\\Xms\\Api\\MtBatchSmsUpdate -->
<g id="edge21" class="edge">
<title>\\Clx\\Xms\\Api\\MtBatchBinarySmsUpdate&#45;&gt;\\Clx\\Xms\\Api\\MtBatchSmsUpdate</title>
<path fill="none" stroke="#000000" d="M601.0207,-1454.0772C547.0672,-1467.4649 473.8768,-1485.6259 419.9937,-1498.9961"/>
<polygon fill="none" stroke="#000000" points="419.029,-1495.6293 410.1662,-1501.4346 420.7148,-1502.4232 419.029,-1495.6293"/>
</g>
<!-- \\Clx\\Xms\\Api\\Page -->
<g id="node29" class="node">
<title>\\Clx\\Xms\\Api\\Page</title>
<polygon fill="none" stroke="#000000" points="700.8731,-1130 646.8731,-1130 646.8731,-1094 700.8731,-1094 700.8731,-1130"/>
<text text-anchor="middle" x="673.8731" y="-1109.2" font-family="Courier,monospace" font-size="11.00" fill="#000000">Page</text>
</g>
<!-- \\Clx\\Xms\\Api\\Page&#45;&gt;\\IteratorAggregate -->
<g id="edge24" class="edge">
<title>\\Clx\\Xms\\Api\\Page&#45;&gt;\\IteratorAggregate</title>
<path fill="none" stroke="#000000" stroke-dasharray="1,5" d="M646.727,-1114.357C623.0017,-1114.7795 589.515,-1111.1052 570.8731,-1090 448.4567,-951.4069 623.6273,-397.4926 498.8731,-261 487.5336,-248.5935 472.6166,-240.6554 456.5665,-235.7383"/>
<polygon fill="none" stroke="#000000" points="457.0117,-232.2354 446.4485,-233.0543 455.2167,-239.0014 457.0117,-232.2354"/>
</g>
<!-- \\Clx\\Xms\\HttpCallException -->
<g id="node30" class="node">
<title>\\Clx\\Xms\\HttpCallException</title>
<polygon fill="none" stroke="#000000" points="739.3731,-1076 608.3731,-1076 608.3731,-1040 739.3731,-1040 739.3731,-1076"/>
<text text-anchor="middle" x="673.8731" y="-1055.2" font-family="Courier,monospace" font-size="11.00" fill="#000000">HttpCallException</text>
</g>
<!-- \\Clx\\Xms\\ApiException -->
<g id="node44" class="node">
<title>\\Clx\\Xms\\ApiException</title>
<polygon fill="none" stroke="#000000" points="396.4366,-806 298.4366,-806 298.4366,-770 396.4366,-770 396.4366,-806"/>
<text text-anchor="middle" x="347.4366" y="-785.2" font-family="Courier,monospace" font-size="11.00" fill="#000000">ApiException</text>
</g>
<!-- \\Clx\\Xms\\HttpCallException&#45;&gt;\\Clx\\Xms\\ApiException -->
<g id="edge2" class="edge">
<title>\\Clx\\Xms\\HttpCallException&#45;&gt;\\Clx\\Xms\\ApiException</title>
<path fill="none" stroke="#000000" stroke-dasharray="1,5" d="M608.135,-1046.7638C595.2307,-1042.9315 582.1974,-1037.8165 570.8731,-1031 476.1477,-973.9814 397.3026,-864.9029 364.1967,-814.6074"/>
<polygon fill="none" stroke="#000000" points="367.1204,-812.6831 358.7347,-806.2077 361.252,-816.4991 367.1204,-812.6831"/>
</g>
<!-- \\RuntimeException -->
<g id="node45" class="node">
<title>\\RuntimeException</title>
<ellipse fill="none" stroke="#000000" cx="347.4366" cy="-180" rx="100.1823" ry="18"/>
<text text-anchor="middle" x="347.4366" y="-176.3" font-family="Times,serif" font-size="14.00" fill="#c0c0c0">\RuntimeException</text>
</g>
<!-- \\Clx\\Xms\\HttpCallException&#45;&gt;\\RuntimeException -->
<g id="edge1" class="edge">
<title>\\Clx\\Xms\\HttpCallException&#45;&gt;\\RuntimeException</title>
<path fill="none" stroke="#000000" d="M608.2844,-1053.2904C594.044,-1049.1792 580.4094,-1042.3036 570.8731,-1031 452.3488,-890.5092 622.916,-342.6431 498.8731,-207 487.7542,-194.8413 473.1992,-186.9749 457.51,-182.0381"/>
<polygon fill="none" stroke="#000000" points="458.1845,-178.594 447.6153,-179.3306 456.337,-185.3458 458.1845,-178.594"/>
</g>
<!-- \\Clx\\Xms\\Deserialize -->
<g id="node31" class="node">
<title>\\Clx\\Xms\\Deserialize</title>
<polygon fill="none" stroke="#000000" points="719.3731,-1022 628.3731,-1022 628.3731,-986 719.3731,-986 719.3731,-1022"/>
<text text-anchor="middle" x="673.8731" y="-1001.2" font-family="Courier,monospace" font-size="11.00" fill="#000000">Deserialize</text>
</g>
<!-- \\Clx\\Xms\\Version -->
<g id="node32" class="node">
<title>\\Clx\\Xms\\Version</title>
<polygon fill="none" stroke="#000000" points="705.8731,-968 641.8731,-968 641.8731,-932 705.8731,-932 705.8731,-968"/>
<text text-anchor="middle" x="673.8731" y="-947.2" font-family="Courier,monospace" font-size="11.00" fill="#000000">Version</text>
</g>
<!-- \\Clx\\Xms\\UnauthorizedException -->
<g id="node33" class="node">
<title>\\Clx\\Xms\\UnauthorizedException</title>
<polygon fill="none" stroke="#000000" points="752.8731,-914 594.8731,-914 594.8731,-878 752.8731,-878 752.8731,-914"/>
<text text-anchor="middle" x="673.8731" y="-893.2" font-family="Courier,monospace" font-size="11.00" fill="#000000">UnauthorizedException</text>
</g>
<!-- \\Clx\\Xms\\UnauthorizedException&#45;&gt;\\Clx\\Xms\\ApiException -->
<g id="edge5" class="edge">
<title>\\Clx\\Xms\\UnauthorizedException&#45;&gt;\\Clx\\Xms\\ApiException</title>
<path fill="none" stroke="#000000" stroke-dasharray="1,5" d="M601.6002,-877.95C591.2448,-875.1042 580.7566,-872.0798 570.8731,-869 513.0703,-850.9879 448.1239,-827.013 403.2131,-809.8283"/>
<polygon fill="none" stroke="#000000" points="404.2515,-806.4779 393.6614,-806.1602 401.7419,-813.0126 404.2515,-806.4779"/>
</g>
<!-- \\Exception -->
<g id="node46" class="node">
<title>\\Exception</title>
<ellipse fill="none" stroke="#000000" cx="347.4366" cy="-126" rx="50.8918" ry="18"/>
<text text-anchor="middle" x="347.4366" y="-122.3" font-family="Times,serif" font-size="14.00" fill="#c0c0c0">xception</text>
</g>
<!-- \\Clx\\Xms\\UnauthorizedException&#45;&gt;\\Exception -->
<g id="edge4" class="edge">
<title>\\Clx\\Xms\\UnauthorizedException&#45;&gt;\\Exception</title>
<path fill="none" stroke="#000000" d="M594.8047,-886.27C585.6928,-882.1757 577.3598,-876.5877 570.8731,-869 466.9608,-747.4493 607.5589,-270.302 498.8731,-153 475.78,-128.0762 438.2359,-121.2573 406.309,-120.7034"/>
<polygon fill="none" stroke="#000000" points="406.1571,-117.2037 396.1659,-120.7288 406.1746,-124.2037 406.1571,-117.2037"/>
</g>
<!-- \\Clx\\Xms\\GroupFilter -->
<g id="node34" class="node">
<title>\\Clx\\Xms\\GroupFilter</title>
<polygon fill="none" stroke="#000000" points="719.3731,-860 628.3731,-860 628.3731,-824 719.3731,-824 719.3731,-860"/>
<text text-anchor="middle" x="673.8731" y="-839.2" font-family="Courier,monospace" font-size="11.00" fill="#000000">GroupFilter</text>
</g>
<!-- \\Clx\\Xms\\ErrorResponseException -->
<g id="node35" class="node">
<title>\\Clx\\Xms\\ErrorResponseException</title>
<polygon fill="none" stroke="#000000" points="756.3731,-806 591.3731,-806 591.3731,-770 756.3731,-770 756.3731,-806"/>
<text text-anchor="middle" x="673.8731" y="-785.2" font-family="Courier,monospace" font-size="11.00" fill="#000000">ErrorResponseException</text>
</g>
<!-- \\Clx\\Xms\\ErrorResponseException&#45;&gt;\\Clx\\Xms\\ApiException -->
<g id="edge9" class="edge">
<title>\\Clx\\Xms\\ErrorResponseException&#45;&gt;\\Clx\\Xms\\ApiException</title>
<path fill="none" stroke="#000000" stroke-dasharray="1,5" d="M591.0774,-788C533.6458,-788 458.5033,-788 406.9392,-788"/>
<polygon fill="none" stroke="#000000" points="406.6312,-784.5001 396.6311,-788 406.6311,-791.5001 406.6312,-784.5001"/>
</g>
<!-- \\Clx\\Xms\\ErrorResponseException&#45;&gt;\\Exception -->
<g id="edge8" class="edge">
<title>\\Clx\\Xms\\ErrorResponseException&#45;&gt;\\Exception</title>
<path fill="none" stroke="#000000" d="M590.9245,-776.2514C583.3575,-772.3957 576.4556,-767.4146 570.8731,-761 392.2366,-555.7367 685.5681,-350.9622 498.8731,-153 475.6436,-128.3686 438.2816,-121.5118 406.482,-120.8655"/>
<polygon fill="none" stroke="#000000" points="406.38,-117.3656 396.3778,-120.8593 406.3756,-124.3656 406.38,-117.3656"/>
</g>
<!-- \\Clx\\Xms\\InboundsFilter -->
<g id="node36" class="node">
<title>\\Clx\\Xms\\InboundsFilter</title>
<polygon fill="none" stroke="#000000" points="729.3731,-752 618.3731,-752 618.3731,-716 729.3731,-716 729.3731,-752"/>
<text text-anchor="middle" x="673.8731" y="-731.2" font-family="Courier,monospace" font-size="11.00" fill="#000000">InboundsFilter</text>
</g>
<!-- \\Clx\\Xms\\Tutorial -->
<g id="node37" class="node">
<title>\\Clx\\Xms\\Tutorial</title>
<polygon fill="none" stroke="#000000" points="709.3731,-698 638.3731,-698 638.3731,-662 709.3731,-662 709.3731,-698"/>
<text text-anchor="middle" x="673.8731" y="-677.2" font-family="Courier,monospace" font-size="11.00" fill="#000000">Tutorial</text>
</g>
<!-- \\Clx\\Xms\\UnexpectedResponseException -->
<g id="node38" class="node">
<title>\\Clx\\Xms\\UnexpectedResponseException</title>
<polygon fill="none" stroke="#000000" points="773.3731,-482 574.3731,-482 574.3731,-446 773.3731,-446 773.3731,-482"/>
<text text-anchor="middle" x="673.8731" y="-461.2" font-family="Courier,monospace" font-size="11.00" fill="#000000">UnexpectedResponseException</text>
</g>
<!-- \\Clx\\Xms\\UnexpectedResponseException&#45;&gt;\\Clx\\Xms\\ApiException -->
<g id="edge13" class="edge">
<title>\\Clx\\Xms\\UnexpectedResponseException&#45;&gt;\\Clx\\Xms\\ApiException</title>
<path fill="none" stroke="#000000" stroke-dasharray="1,5" d="M587.0974,-482.0309C581.4095,-484.6287 575.9385,-487.6004 570.8731,-491 464.2947,-562.5289 388.4368,-702.2266 359.9098,-760.9613"/>
<polygon fill="none" stroke="#000000" points="356.7478,-759.4609 355.5885,-769.9921 363.0621,-762.4824 356.7478,-759.4609"/>
</g>
<!-- \\UnexpectedValueException -->
<g id="node48" class="node">
<title>\\UnexpectedValueException</title>
<ellipse fill="none" stroke="#000000" cx="347.4366" cy="-72" rx="141.8751" ry="18"/>
<text text-anchor="middle" x="347.4366" y="-68.3" font-family="Times,serif" font-size="14.00" fill="#c0c0c0">\UnexpectedValueException</text>
</g>
<!-- \\Clx\\Xms\\UnexpectedResponseException&#45;&gt;\\UnexpectedValueException -->
<g id="edge12" class="edge">
<title>\\Clx\\Xms\\UnexpectedResponseException&#45;&gt;\\UnexpectedValueException</title>
<path fill="none" stroke="#000000" d="M581.4229,-445.888C577.6143,-443.2905 574.0642,-440.343 570.8731,-437 464.8202,-325.8987 609.2803,-205.7753 498.8731,-99 493.396,-93.7031 487.2587,-89.2514 480.6765,-85.5225"/>
<polygon fill="none" stroke="#000000" points="481.9508,-82.2455 471.4451,-80.8741 478.8025,-88.4976 481.9508,-82.2455"/>
</g>
<!-- \\Clx\\Xms\\DeliveryReportType -->
<g id="node39" class="node">
<title>\\Clx\\Xms\\DeliveryReportType</title>
<polygon fill="none" stroke="#000000" points="742.8731,-590 604.8731,-590 604.8731,-554 742.8731,-554 742.8731,-590"/>
<text text-anchor="middle" x="673.8731" y="-569.2" font-family="Courier,monospace" font-size="11.00" fill="#000000">DeliveryReportType</text>
</g>
<!-- \\Clx\\Xms\\BatchFilter -->
<g id="node40" class="node">
<title>\\Clx\\Xms\\BatchFilter</title>
<polygon fill="none" stroke="#000000" points="719.3731,-536 628.3731,-536 628.3731,-500 719.3731,-500 719.3731,-536"/>
<text text-anchor="middle" x="673.8731" y="-515.2" font-family="Courier,monospace" font-size="11.00" fill="#000000">BatchFilter</text>
</g>
<!-- \\Clx\\Xms\\Client -->
<g id="node41" class="node">
<title>\\Clx\\Xms\\Client</title>
<polygon fill="none" stroke="#000000" points="702.3731,-428 645.3731,-428 645.3731,-392 702.3731,-392 702.3731,-428"/>
<text text-anchor="middle" x="673.8731" y="-407.2" font-family="Courier,monospace" font-size="11.00" fill="#000000">Client</text>
</g>
<!-- \\Psr\\Log\\LoggerAwareInterface -->
<g id="node49" class="node">
<title>\\Psr\\Log\\LoggerAwareInterface</title>
<ellipse fill="none" stroke="#000000" cx="347.4366" cy="-18" rx="151.3732" ry="18"/>
<text text-anchor="middle" x="347.4366" y="-14.3" font-family="Times,serif" font-size="14.00" fill="#c0c0c0">\PsrLogLoggerAwareInterface</text>
</g>
<!-- \\Clx\\Xms\\Client&#45;&gt;\\Psr\\Log\\LoggerAwareInterface -->
<g id="edge19" class="edge">
<title>\\Clx\\Xms\\Client&#45;&gt;\\Psr\\Log\\LoggerAwareInterface</title>
<path fill="none" stroke="#000000" stroke-dasharray="1,5" d="M645.3676,-410.2628C622.0911,-408.8802 590.0196,-403.0579 570.8731,-383 464.8202,-271.8987 609.2803,-151.7753 498.8731,-45 494.0859,-40.3703 488.7944,-36.3863 483.1422,-32.9662"/>
<polygon fill="none" stroke="#000000" points="484.4493,-29.6953 473.9839,-28.0442 481.1355,-35.8613 484.4493,-29.6953"/>
</g>
<!-- \\Clx\\Xms\\NotFoundException -->
<g id="node42" class="node">
<title>\\Clx\\Xms\\NotFoundException</title>
<polygon fill="none" stroke="#000000" points="739.3731,-644 608.3731,-644 608.3731,-608 739.3731,-608 739.3731,-644"/>
<text text-anchor="middle" x="673.8731" y="-623.2" font-family="Courier,monospace" font-size="11.00" fill="#000000">NotFoundException</text>
</g>
<!-- \\Clx\\Xms\\NotFoundException&#45;&gt;\\Clx\\Xms\\ApiException -->
<g id="edge23" class="edge">
<title>\\Clx\\Xms\\NotFoundException&#45;&gt;\\Clx\\Xms\\ApiException</title>
<path fill="none" stroke="#000000" stroke-dasharray="1,5" d="M608.3678,-640.1456C595.7071,-643.7213 582.7071,-647.9976 570.8731,-653 498.8173,-683.4591 422.3513,-734.2171 380.18,-764.0536"/>
<polygon fill="none" stroke="#000000" points="378.0768,-761.2546 371.9649,-769.9089 382.1397,-766.9549 378.0768,-761.2546"/>
</g>
<!-- \\Clx\\Xms\\NotFoundException&#45;&gt;\\Exception -->
<g id="edge22" class="edge">
<title>\\Clx\\Xms\\NotFoundException&#45;&gt;\\Exception</title>
<path fill="none" stroke="#000000" d="M608.325,-620.6321C594.2576,-616.5218 580.6907,-609.8117 570.8731,-599 435.8934,-450.351 639.6842,-296.1373 498.8731,-153 475.2138,-128.9499 438.0282,-122.0609 406.4272,-121.2526"/>
<polygon fill="none" stroke="#000000" points="406.4094,-117.7525 396.3876,-121.1898 406.3655,-124.7524 406.4094,-117.7525"/>
</g>
<!-- \\Clx\\Xms\\Serialize -->
<g id="node43" class="node">
<title>\\Clx\\Xms\\Serialize</title>
<polygon fill="none" stroke="#000000" points="712.3731,-374 635.3731,-374 635.3731,-338 712.3731,-338 712.3731,-374"/>
<text text-anchor="middle" x="673.8731" y="-353.2" font-family="Courier,monospace" font-size="11.00" fill="#000000">Serialize</text>
</g>
</g>
</svg>
